HIERARCHY
ROOT Hips
{
	OFFSET 0.000000 0.000000 0.000000
	CHANNELS 6 Xposition Yposition Zposition Xrotation Yrotation Zrotation
	JOINT LeftUpLeg_virtual
	{
		OFFSET 0.000000 0.000000 0.000000
		CHANNELS 3 Xrotation Yrotation Zrotation
		JOINT LeftUpLeg
		{
			OFFSET 0.086025 -0.002322 0.060046
			CHANNELS 3 Xrotation Yrotation Zrotation
			JOINT LeftLeg
			{
				OFFSET 0.005130 0.001862 0.314250
				CHANNELS 3 Xrotation Yrotation Zrotation
				JOINT LeftFoot
				{
					OFFSET 0.029099 0.003055 0.305414
					CHANNELS 3 Xrotation Yrotation Zrotation
					JOINT LeftToeBase
					{
						OFFSET 0.032406 0.158115 0.089037
						CHANNELS 3 Xrotation Yrotation Zrotation
						JOINT LeftToe_End
						{
							OFFSET 0.020098 0.068010 -0.003802
							CHANNELS 3 Xrotation Yrotation Zrotation
							End Site
							{
								OFFSET 0 0 0
							}
						}
					}
				}
			}
		}
	}
	JOINT RightUpLeg_virtual
	{
		OFFSET 0.000000 0.000000 0.000000
		CHANNELS 3 Xrotation Yrotation Zrotation
		JOINT RightUpLeg
		{
			OFFSET -0.086024 0.004521 0.060047
			CHANNELS 3 Xrotation Yrotation Zrotation
			JOINT RightLeg
			{
				OFFSET -0.005129 0.001774 0.314251
				CHANNELS 3 Xrotation Yrotation Zrotation
				JOINT RightFoot
				{
					OFFSET -0.029099 0.004797 0.305414
					CHANNELS 3 Xrotation Yrotation Zrotation
					JOINT RightToeBase
					{
						OFFSET -0.032405 0.159308 0.089036
						CHANNELS 3 Xrotation Yrotation Zrotation
						JOINT RightToe_End
						{
							OFFSET -0.020098 0.066652 -0.003802
							CHANNELS 3 Xrotation Yrotation Zrotation
							End Site
							{
								OFFSET 0 0 0
							}
						}
					}
				}
			}
		}
	}
	JOINT Spine_virtual
	{
		OFFSET 0.000000 0.000000 0.000000
		CHANNELS 3 Xrotation Yrotation Zrotation
		JOINT Spine
		{
			OFFSET 0.000000 -0.008525 -0.108039
			CHANNELS 3 Xrotation Yrotation Zrotation
			JOINT Spine1
			{
				OFFSET 0.000000 -0.009946 -0.126046
				CHANNELS 3 Xrotation Yrotation Zrotation
				JOINT Spine2
				{
					OFFSET 0.000000 -0.011367 -0.144052
					CHANNELS 3 Xrotation Yrotation Zrotation
					JOINT Neck_virtual
					{
						OFFSET 0.000000 0.000000 0.000000
						CHANNELS 3 Xrotation Yrotation Zrotation
						JOINT Neck
						{
							OFFSET 0.000000 -0.012788 -0.162059
							CHANNELS 3 Xrotation Yrotation Zrotation
							JOINT Head
							{
								OFFSET 0.000000 -0.019313 -0.077391
								CHANNELS 3 Xrotation Yrotation Zrotation
								JOINT HeadTop_End
								{
									OFFSET 0.000000 -0.142419 -0.570699
									CHANNELS 3 Xrotation Yrotation Zrotation
									End Site
									{
										OFFSET 0 0 0
									}
								}
							}
						}
					}
					JOINT LeftShoulder_virtual
					{
						OFFSET 0.000000 0.000000 0.000000
						CHANNELS 3 Xrotation Yrotation Zrotation
						JOINT LeftShoulder
						{
							OFFSET 0.059117 -0.013497 -0.154003
							CHANNELS 3 Xrotation Yrotation Zrotation
							JOINT LeftArm
							{
								OFFSET 0.105067 -0.001420 0.016848
								CHANNELS 3 Xrotation Yrotation Zrotation
								JOINT LeftForeArm
								{
									OFFSET 0.311627 -0.003307 -0.007856
									CHANNELS 3 Xrotation Yrotation Zrotation
									JOINT LeftHand
									{
										OFFSET 0.267365 -0.006620 -0.009061
										CHANNELS 3 Xrotation Yrotation Zrotation
										End Site
										{
											OFFSET 0 0 0
										}
									}
								}
							}
						}
					}
					JOINT RightShoulder_virtual
					{
						OFFSET 0.000000 0.000000 0.000000
						CHANNELS 3 Xrotation Yrotation Zrotation
						JOINT RightShoulder
						{
							OFFSET -0.059117 -0.012078 -0.154003
							CHANNELS 3 Xrotation Yrotation Zrotation
							JOINT RightArm
							{
								OFFSET -0.105067 0.001420 0.016849
								CHANNELS 3 Xrotation Yrotation Zrotation
								JOINT RightForeArm
								{
									OFFSET -0.311626 -0.007328 -0.007857
									CHANNELS 3 Xrotation Yrotation Zrotation
									JOINT RightHand
									{
										OFFSET -0.267364 -0.007689 -0.009061
										CHANNELS 3 Xrotation Yrotation Zrotation
										End Site
										{
											OFFSET 0 0 0
										}
									}
								}
							}
						}
					}
				}
			}
		}
	}
}
MOTION
Frames: 6
Frame Time: 0.03333333
-0.114865 0.608591 -0.866596 0.000000 0.000000 0.000000 76.386834 11.983878 151.258036 26.627516 12.423786 87.073874 -40.160922 -3.915978 78.361818 51.564486 -28.628222 171.311458 55.315527 7.698865 -8.752262 0.000000 0.000000 0.000000 77.527585 13.252007 140.062140 147.589801 -60.455295 159.890466 13.146833 -4.083645 40.198809 -126.515471 36.004085 125.837028 61.924230 -12.989643 28.802679 0.000000 0.000000 0.000000 81.401177 11.710668 136.473901 7.424836 65.844355 -117.325151 -109.685448 41.304507 178.371456 0.000000 0.000000 0.000000 -107.942049 36.638234 172.354291 82.433608 24.515236 116.634059 -54.438773 23.394359 -148.634574 0.000000 0.000000 0.000000 -100.855721 34.824502 164.240245 -32.398978 6.706707 -47.884988 125.007775 -25.882382 65.517989 -70.766012 -3.512512 140.150632 0.000000 0.000000 0.000000 -110.815571 35.126331 172.934133 27.591283 -25.806668 -41.144988 -54.588040 -28.042317 -18.610688 44.573876 62.974672 19.640163 0.000000 0.000000 0.000000 
-0.304305 0.351831 -1.061045 0.000000 0.000000 0.000000 89.978692 7.047793 126.981044 36.038926 51.095890 20.448297 -44.414415 15.317526 85.177930 100.222439 -30.861134 -178.374447 49.428570 13.177877 -32.697929 0.000000 0.000000 0.000000 93.003537 9.809530 121.401271 63.993347 -39.301844 106.039363 -14.606959 75.598514 109.739167 -148.964486 -2.528642 76.215315 42.436976 -8.827998 8.450739 0.000000 0.000000 0.000000 92.023910 5.924538 125.422982 -17.782457 57.494886 -82.380168 -113.915965 38.725520 166.251285 0.000000 0.000000 0.000000 -111.680109 32.587840 161.838245 53.656163 31.765127 104.311475 -83.984860 29.851946 -127.139955 0.000000 0.000000 0.000000 -106.803422 30.293706 155.382022 -42.457211 -16.026484 -66.060627 90.778077 -53.953051 50.962377 -103.259032 -48.543896 129.867660 0.000000 0.000000 0.000000 -115.611265 33.727109 165.230363 9.023790 7.497931 -7.113808 -49.379597 -5.692139 8.279515 60.352248 74.849755 -14.154648 0.000000 0.000000 0.000000 
-0.448906 0.132770 -1.229503 0.000000 0.000000 0.000000 106.269855 -4.025486 120.406249 101.084197 -7.507506 -145.367162 -59.912760 35.960540 105.267340 131.899272 -29.350938 -174.045815 49.369342 6.592589 -7.431736 0.000000 0.000000 0.000000 108.982464 -4.879342 124.570506 44.592164 -9.632463 53.625786 -45.765245 60.615969 168.867712 176.308711 -37.941919 29.525221 0.739683 28.510919 14.972077 0.000000 0.000000 0.000000 109.868709 -5.367114 125.725642 -22.056470 38.349589 -55.050676 -114.615246 -4.595407 -164.690928 0.000000 0.000000 0.000000 -112.997256 -8.989255 -166.758973 38.469777 25.194734 68.667546 -96.426282 34.388322 -146.575887 0.000000 0.000000 0.000000 -109.456329 -13.500522 -171.648391 51.081038 -73.900994 24.085776 117.803114 -60.298385 93.673804 -133.002307 -61.289528 107.601291 0.000000 0.000000 0.000000 -116.073273 -8.134057 -166.125719 -2.940680 39.547861 19.345327 -111.264150 18.094747 33.708749 83.770296 76.339180 -67.832186 0.000000 0.000000 0.000000 
-0.552914 0.073505 -1.336493 0.000000 0.000000 0.000000 115.607003 -9.758299 140.290556 102.486271 -26.815750 -164.190357 -83.667037 51.825792 131.175463 140.287632 -39.837194 168.647834 -29.691843 31.919824 -26.239855 0.000000 0.000000 0.000000 118.647817 -13.146345 145.377216 50.011888 9.905336 16.423972 -40.754813 57.994344 162.478671 147.692445 -30.190795 8.500997 14.176066 -15.638594 9.740797 0.000000 0.000000 0.000000 119.914380 -14.135199 136.354167 -1.534279 20.779577 -33.538421 125.222175 -72.693375 45.086997 0.000000 0.000000 0.000000 123.238551 -68.090402 43.581029 -6.412910 8.327229 45.405291 -65.753364 48.776215 120.293374 0.000000 0.000000 0.000000 117.538021 -62.472516 27.932132 103.448925 -24.240691 74.136335 101.176262 -61.150397 106.888888 -133.426817 -64.142846 108.712392 0.000000 0.000000 0.000000 141.338307 -69.475673 65.922582 12.138427 44.615742 3.133202 -137.848080 35.756057 46.445508 84.739070 79.237072 -95.797788 0.000000 0.000000 0.000000 
-0.624589 0.357464 -1.369974 0.000000 0.000000 0.000000 113.656247 -6.487533 152.141180 115.483910 -20.463235 -161.846018 -95.173932 61.865169 154.128683 82.200739 -49.830851 77.939398 88.179723 -46.029765 -94.184094 0.000000 0.000000 0.000000 117.777760 -11.682835 155.108624 57.481335 13.143636 -5.801108 -1.577163 60.381222 101.877913 144.496340 -27.131506 2.861921 53.013056 -5.208952 11.643290 0.000000 0.000000 0.000000 120.955192 -14.810224 147.012746 8.069514 11.287163 -11.633420 109.126008 -29.978267 19.459405 0.000000 0.000000 0.000000 110.021281 -26.056542 25.265701 -61.276953 14.823059 15.711581 -35.922711 27.763677 33.532520 0.000000 0.000000 0.000000 109.348767 -24.474163 14.607830 76.468763 -13.501109 53.682401 11.324324 -42.397925 56.354204 -102.036462 -54.132985 134.237779 0.000000 0.000000 0.000000 112.905506 -32.674713 34.289694 37.510709 16.379234 -28.591619 -103.980512 48.880693 20.157587 144.100408 88.246652 -174.406285 0.000000 0.000000 0.000000 
-0.675530 1.033079 -1.341846 0.000000 0.000000 0.000000 100.993212 4.856856 152.181983 123.800375 -0.735245 -165.278147 -9.477357 28.513748 87.922785 56.363179 -7.474401 31.230876 93.289797 -19.968400 -131.048189 0.000000 0.000000 0.000000 107.569776 -1.030015 155.132365 59.760617 11.604037 -29.533383 4.249803 4.147857 48.377117 -162.130727 -47.719202 17.691573 57.979331 -14.011179 13.758858 0.000000 0.000000 0.000000 109.837085 -2.963766 149.930070 -17.924032 2.003163 6.299560 20.510121 -15.698780 9.887601 0.000000 0.000000 0.000000 21.609735 -19.023834 16.432575 -40.040174 44.170096 -21.822881 -26.390703 13.776387 -11.456703 0.000000 0.000000 0.000000 16.208082 -7.876293 8.623233 47.481580 12.112733 42.212686 -22.021356 10.127894 48.428613 -71.019310 11.838933 135.991757 0.000000 0.000000 0.000000 20.699933 -30.220271 16.678033 38.590794 -4.889927 -35.084769 -46.475121 14.505155 -20.564467 -108.192526 84.771643 82.692451 0.000000 0.000000 0.000000 
